<svg width="192" height="192" xmlns="http://www.w3.org/2000/svg">
  <g stroke-width="4" stroke-linejoin="round" stroke-linecap="round" stroke="black" fill="none">
    <path d="m104,147l-4.5,0c-13.5,-5.5 -28.5,-15.5 -39.5,-18c-7,-4 -14,-7.5 -20,-12l-11,-10l-4.5,-6l-4.5,-10.5l-11.5,-11.5c-1.5,-4 -6.5,-7.5 -6.5,-15l0,-5c0,-3 3,-6.5 5,-10.5l9.5,-9.5c1.5,0 6,-3.5 9,-12.5c2.5,-6.5 4,-8 8,-13.5l6,-6l1,0c1.5,-2 3.5,-2 5.5,-4l23,-1l31,0l26,2c6,0 23,4 29,5c7,2.5 21,12.5 21,15c0,9 1.5,12 4,15c3,0 2,3 6,3c0,3 4,5 4,9l0,14.5c-1.5,2.5 -3,4.5 -3,7c-3,4.5 -6,10 -6,12.5l0,33c3,7 2,13 2,19c-1,3 -3,5 -4,7c-4,5 -13,11 -23,11l-19,0c-11,-3.5 -24,-4.5 -34,-9" fill="white"/>
    <path d="m46,52c-3.5,-1 -6,-4 -7.5,-4c-5,0 -7,0 -9.5,0c-9.5,4 -10.86435,10.46164 -11,15.5c0,4 1.5,7 3,9.5"/>
    <path d="m75,48c-4.5,4.5 -9.5,7 -12.5,7l-6,0c-4,0 -9,-3.5 -10.5,-4"/>
    <path d="m146,56l1.5,2l2,0c0.5,1.5 3.5,1 7.5,1"/>
    <path d="m155.5,57c2,-1 3,-2.5 6,-4l9,0c1,1 2,2 3.5,3l0,-1"/>
    <path d="m164,61l0,6c-4,14 -22.5,18 -37,18c-14,0 -33,-3 -47,-8.5c-21.5,-5 -34.5,-12.5 -42,-16.5"/>
    <path d="m33.5,64.5c5,14.5 12,28.5 31.5,41.5c8.5,7 22.5,13 48,14l19,0c2.5,0 18,-1.5 26,-4.5c7,-2.5 8,-8.5 11,-17.5l0,-19l-2,-9"/>
    <path d="m25,66c11,0 11,-9 11,-11"/>
    <path d="m167,73l0,-5l-3,3"/>
    <path d="m35,74c5,1 24,11 41,19c4.5,-0.5 18.5,7 30,8.5c4,0.5 6.5,2.5 10,2.5l14.5,1l13,0c10.5,-1 20.65625,-4.98438 24.5,-7.5"/>
    <path d="m161,73.5c3,4.5 3.5,8 4.5,11c1,3 1.5,8.5 0,11.5c-4,7 -6,10 -6.5,13.5l-1,0.5"/>
    <path d="m57,71l0,5.5c1,3 4.5,7.5 8,9.5l3.5,0c5,2.5 15,7 23.5,8l5.5,2l39.5,0c6,0 13.5,-1 20.5,-3l9.5,-4l-5,9l-13,4l-29,-1l-22,-3l49,1l16,-5"/>
    <path d="m78,113c0,-3.5 1,-7.5 4,-10.5c0,-5 0,-8 1.5,-12c2,-3 1.5,-7.5 3.5,-11.5"/>
    <path d="m148,114l0.5,0c2,-4 7.5,-12.5 8.5,-23.5c1.5,-2 1,-8 0,-9.5l0,-2"/>
    <path d="m146,83c0,3.5 0.5,6.5 2,8"/>
    <path d="m135,119c3,-2 5,-7 7,-14"/>
    <path d="m105,115l1,0l0,-13"/>
    <path d="m124,117c2.5,-10 6,-20 3,-30.5"/>
    <path d="m55,96c1.5,-1 5,-2 2,-9l0,-2.5"/>
    <path d="m54,82l4.5,0"/>
    <path d="m110,94.5l0,-9"/>
    <path d="m99,63l-5.5,0c-4.5,0.5 -5.5,9 -0.5,11"/>
    <path d="m118,45c3,0 4,2.5 7,2.5l0,10.5c1.5,3 9.5,2.5 9,9c-2,5.5 -5.5,9 -9.5,11c-3.5,0 -5.5,0 -5.5,-2"/>
    <path d="m99,72l0,-2c3,0 7.5,0 11,1"/>
    <path d="m127.5,47c11.5,-6 23.5,-2.5 26.5,-5.5c0,-4.5 -16,-4 -21,-2c-3,1 -6,3.5 -8,6l13,-5"/>
    <path d="m64,35l9.5,-2l7.5,0c9,0.5 17,6.5 19.5,10c0,3 -3.5,4 -5.5,6c-1.5,-2 -2,-2 -3.5,-2c-4.5,-3.5 -14.5,-8 -32,-3c-1.5,0 -3.5,-1 -3.5,-1.5c0,-1.5 2.5,-3.5 4.5,-5.5l6.5,0l11,0l2,-1.5c0,4 -1.5,3.5 -2.5,4.5l-10.5,0"/>
    <path d="m135.5,66c1,1 2.5,2.5 2.5,4"/>
    <path stroke-width="1" d="m107.5,126.5l32,0m-87,-15l25.5,12l21,7l30,2l16,0l8.5,-2.5l3.5,-1.5l5.5,-5.5m-120,-11.5l21,11l20,8l30,6l21,2l24,0l6,-4l7,-4l0,-6m-140,-84l-11,0l-9,3l-8,10l-2,13l8,13l10,4m16,-41l-14,0l-6,2l-1,2l-1,3l-3,2l0,16l2,7l2,2l8,3m21,-37l4,1l2,0m2,-3l-6,1l-2,0m8,4l-2,0.5m21,20l13,-0.5l3,-1l-0.5,-3m-43.5,-35l3,-3l9,-6l7,-4l7,-3l13,-4l16,0l23,3l13,0l11,-1m10,8l-4,-3l-18,2l-18,0l-18,-3l-9,0l-16,3l-6,2l-9,5l-9,8m6,2l5,-6l11,-6l12,-2l14,0l4,1m24,4l5,-2l17,-1l10,6l1,6m-62,-12l3,2l2,4l0,5m26,6l0,-6l1,-4l2,-1m23,47l-6,-3l-4,-1l-2,-4l-5,-3m38,-15l0,1l5,1l2,3l1,10l-4,5l-2,0m-1,7l5,-3l2,0l4,-3l2,-11l-2,-7l-4,-3l-6,-5l-9,0l-1,1l-4,-2l-2,1"/>
  </g>
</svg>